<?xml version="1.0" encoding="UTF-8" standalone="no"?>
<!-- Created with Inkscape (http://www.inkscape.org/) -->

<svg
   xmlns:dc="http://purl.org/dc/elements/1.1/"
   xmlns:cc="http://creativecommons.org/ns#"
   xmlns:rdf="http://www.w3.org/1999/02/22-rdf-syntax-ns#"
   xmlns:svg="http://www.w3.org/2000/svg"
   xmlns="http://www.w3.org/2000/svg"
   xmlns:sodipodi="http://sodipodi.sourceforge.net/DTD/sodipodi-0.dtd"
   xmlns:inkscape="http://www.inkscape.org/namespaces/inkscape"
   width="500"
   height="500"
   viewBox="0 0 500 500.00001"
   id="svg2"
   version="1.1"
   inkscape:version="0.91 r13725"
   sodipodi:docname="icon.svg"
   inkscape:export-filename="/home/vega04/text4144.png"
   inkscape:export-xdpi="90"
   inkscape:export-ydpi="90">
  <defs
     id="defs4" />
  <sodipodi:namedview
     id="base"
     pagecolor="#ffffff"
     bordercolor="#666666"
     borderopacity="1.0"
     inkscape:pageopacity="0.0"
     inkscape:pageshadow="2"
     inkscape:zoom="0.7"
     inkscape:cx="400.71096"
     inkscape:cy="162.62816"
     inkscape:document-units="px"
     inkscape:current-layer="layer1"
     showgrid="false"
     units="px"
     inkscape:window-width="1920"
     inkscape:window-height="1032"
     inkscape:window-x="0"
     inkscape:window-y="1"
     inkscape:window-maximized="1" />
  <metadata
     id="metadata7">
    <rdf:RDF>
      <cc:Work
         rdf:about="">
        <dc:format>image/svg+xml</dc:format>
        <dc:type
           rdf:resource="http://purl.org/dc/dcmitype/StillImage" />
        <dc:title></dc:title>
      </cc:Work>
    </rdf:RDF>
  </metadata>
  <g
     inkscape:label="Layer 1"
     inkscape:groupmode="layer"
     id="layer1"
     transform="translate(0,-552.36214)">
    <path
       style="fill:#ececec;fill-opacity:1;stroke:#cccccc;stroke-width:1;stroke-linejoin:miter;stroke-miterlimit:4;stroke-dasharray:none;stroke-dashoffset:0;stroke-opacity:1"
       d="M 337.77344 0.07421875 L 329.29688 3.4960938 L 331.8418 9.8027344 L 342.05664 8.2714844 L 392.38477 132.92578 C 401.74318 131.32844 410.61603 129.55058 419.00195 127.59375 C 427.47865 125.6755 434.82092 123.4637 441.0293 120.95703 C 448.53109 117.92814 454.56532 114.06046 459.13477 109.35742 C 463.76888 104.62826 467.04246 99.321487 468.95312 93.435547 C 470.83767 87.484937 471.45812 81.105072 470.81445 74.294922 C 470.20933 67.393992 468.41809 60.257216 465.44141 52.884766 C 462.30807 45.124296 458.8807 38.686872 455.16016 33.570312 C 451.43963 28.453742 447.27098 24.645997 442.65234 22.148438 C 438.09838 19.624767 433.06361 18.423472 427.54688 18.544922 C 422.00403 18.601722 415.83729 20.000518 409.04688 22.742188 C 406.78341 23.656078 404.53301 24.790391 402.29688 26.144531 C 400.03463 27.433991 397.88273 28.905261 395.8418 30.556641 C 393.83944 32.117241 392.0201 33.75392 390.38086 35.46875 C 388.8063 37.15748 387.54259 38.870855 386.58984 40.609375 C 385.65985 37.374635 384.58 34.049856 383.35156 30.634766 C 382.18779 27.193556 381.12237 24.275622 380.15625 21.882812 L 371.35156 0.07421875 L 337.77344 0.07421875 z M 480.24805 0.07421875 C 478.97457 1.5687163 477.85487 3.1114411 476.90234 4.7089844 C 474.48067 8.7704844 473.12837 13.153339 472.8457 17.855469 C 472.6016 22.466809 473.52439 27.3576 475.61328 32.53125 C 480.65913 45.028512 488.76847 52.054585 499.92578 53.632812 L 499.92578 11.527344 C 499.31384 8.5687241 499.15577 6.0045258 499.45508 3.8398438 C 499.55905 3.1187495 499.71859 2.4364499 499.92578 1.7851562 L 499.92578 0.07421875 L 480.24805 0.07421875 z M 300.41992 27.341797 C 292.64991 27.243897 283.85323 29.177261 274.02734 33.144531 C 268.207 35.494531 262.97613 38.095996 258.33594 40.947266 C 253.73431 43.707766 249.08256 46.713827 244.37891 49.966797 L 256.32422 79.552734 L 264.76367 76.146484 L 261.33594 55.642578 C 262.66184 53.151698 264.35288 51.004096 266.40625 49.197266 C 268.45962 47.390436 271.49043 45.677484 275.5 44.058594 C 278.02216 43.040254 280.61048 42.559064 283.26562 42.615234 C 285.92075 42.671434 288.49545 43.3616 290.98633 44.6875 C 293.51577 45.92261 295.89697 47.81793 298.13281 50.375 C 300.34254 52.8674 302.24316 56.088303 303.83594 60.033203 C 306.13373 65.724223 307.66665 71.008632 308.43359 75.888672 C 309.20053 80.768722 309.37881 85.585494 308.9668 90.339844 C 308.59335 95.003414 307.66229 99.780629 306.17578 104.66797 C 304.66315 109.49063 302.78992 114.72042 300.55469 120.36133 C 298.35802 125.91147 295.85194 131.99988 293.03711 138.62695 C 290.19616 145.18934 287.1946 152.56841 284.03516 160.76367 L 291.43945 179.09961 L 373.89453 145.80664 L 365.04297 123.88281 L 301.21289 149.6543 C 305.35606 141.2875 309.29345 133.71781 313.02734 126.94531 C 316.76123 120.17281 320.11003 113.93458 323.07031 108.22656 C 326.09524 102.49243 328.64826 97.173704 330.73047 92.271484 C 332.81268 87.369264 334.27347 82.604736 335.11328 77.978516 C 336.01775 73.326176 336.24901 68.681895 335.80664 64.046875 C 335.33815 59.347165 334.05764 54.409978 331.96875 49.236328 C 327.58208 38.371668 320.38615 31.538275 310.37891 28.734375 C 307.27185 27.849985 303.95174 27.386267 300.41992 27.341797 z M 411.6875 35.753906 C 412.04003 35.759906 412.39242 35.776788 412.74219 35.804688 C 415.57889 35.937977 418.35299 37.036219 421.06641 39.099609 C 423.75374 41.098329 426.41816 44.15842 429.06055 48.28125 C 431.67683 52.3394 434.31713 57.667272 436.98047 64.263672 C 439.56548 70.666062 441.54045 76.487766 442.9043 81.728516 C 444.26815 86.969266 444.86548 91.615712 444.69727 95.669922 C 444.56763 99.633352 443.65851 102.97137 441.9707 105.68359 C 440.28289 108.3958 437.69143 110.45719 434.19922 111.86719 C 431.6124 112.91164 428.87747 113.86637 425.99219 114.73047 C 423.17158 115.56845 420.62209 116.14665 418.34375 116.46484 L 390.18359 46.716797 C 391.61514 44.860177 393.68153 43.086891 396.38281 41.394531 C 399.05799 39.637481 401.62454 38.261751 404.08203 37.269531 C 406.68502 36.218561 409.2198 35.713716 411.6875 35.753906 z M 499.92578 66.619141 L 495.59961 78.955078 C 496.65706 81.574139 498.10019 83.779 499.92578 85.574219 L 499.92578 66.619141 z M 216.93555 104.28906 C 210.52491 104.22396 203.48761 105.73672 195.82617 108.83008 C 188.38905 111.83286 182.40515 115.45473 177.87305 119.69141 C 173.40562 123.90198 170.26763 128.70223 168.45898 134.0957 C 166.65033 139.48916 166.13837 145.48737 166.92383 152.08984 C 167.68319 158.62764 169.61738 165.74561 172.72461 173.44141 C 175.85795 181.20189 179.44709 187.76149 183.49219 193.12305 C 187.51117 198.41999 192.02533 202.42806 197.0332 205.14453 C 202.10574 207.83488 207.67807 209.15689 213.75195 209.11133 C 219.82582 209.06583 226.45243 207.59365 233.63086 204.69531 C 241.26199 201.61419 247.34289 197.95547 251.875 193.71875 C 256.44565 189.39129 259.62176 184.49913 261.4043 179.04102 C 263.18684 173.58288 263.65482 167.56463 262.80469 160.98828 C 262.01923 154.38581 260.05911 147.20383 256.92578 139.44336 C 250.63299 123.85774 242.47155 113.42787 232.44336 108.15039 C 227.76072 105.63402 222.592 104.34646 216.93555 104.28906 z M 204.38086 117.83008 C 205.36138 117.85728 206.30862 118.02416 207.22266 118.33203 C 209.66011 119.15301 212.03739 120.94032 214.35156 123.69141 C 216.66574 126.44249 218.96758 130.09978 221.26172 134.66406 C 223.55586 139.22836 225.96917 144.64687 228.50195 150.91992 C 231.06085 157.25764 233.114 162.89755 234.6582 167.83984 C 236.17629 172.71744 237.07097 176.98147 237.3418 180.63281 C 237.61263 184.2841 237.16776 187.28491 236.00977 189.63281 C 234.85177 191.98068 232.81838 193.74101 229.9082 194.91602 C 227.0627 196.0649 224.4399 196.1852 222.04102 195.27344 C 219.64213 194.36165 217.30491 192.48245 215.0293 189.64062 C 212.81835 186.77264 210.59861 183.04546 208.36914 178.45508 C 206.11356 173.8 203.70538 168.30256 201.14648 161.96484 C 198.6137 155.69179 196.55737 150.12886 194.97461 145.27734 C 193.39185 140.42584 192.41312 136.23364 192.03906 132.69922 C 191.72967 129.1387 192.13445 126.22976 193.25391 123.97266 C 194.37335 121.71556 196.35566 120.01217 199.20117 118.86328 C 201.02003 118.1289 202.74666 117.78477 204.38086 117.83008 z M 115.41992 120.08594 L 100.86719 125.96289 L 97.861328 151.20703 L 85.322266 160.66797 L 87.867188 166.97461 L 99.798828 162.15625 L 124.04297 222.20312 C 125.37464 225.50132 127.13279 228.36523 129.31641 230.79297 C 131.47392 233.15601 134.06916 234.92768 137.10352 236.10938 C 140.11177 237.22636 143.56534 237.67488 147.46289 237.45508 C 151.4251 237.20915 155.83134 236.10679 160.68164 234.14844 C 162.68643 233.33898 164.75576 232.31534 166.88867 231.07812 C 169.08625 229.81475 171.116 228.50721 172.97656 227.1543 C 174.92792 225.83992 176.64587 224.506 178.13086 223.1543 C 179.61585 221.80259 180.67994 220.62162 181.32422 219.60938 L 177.99609 211.36328 C 176.27731 212.50851 174.3827 213.68731 172.31445 214.89844 C 170.31088 216.08349 168.21052 217.12006 166.01172 218.00781 C 163.16622 219.1567 160.43786 219.01702 157.83008 217.58789 C 155.2223 216.15876 153.07028 213.34225 151.37305 209.13867 L 127.83398 150.83789 L 147.04102 143.08203 L 142.96875 132.99414 L 123.76172 140.74805 L 115.41992 120.08594 z M 51.615234 170.30078 C 46.159754 170.34108 40.263491 171.64227 33.925781 174.20117 C 30.950931 175.40227 28.312529 176.69203 26.011719 178.07227 C 23.710909 179.45256 21.656026 180.88299 19.847656 182.36523 C 18.077896 183.75672 16.501694 185.25875 15.121094 186.86914 C 13.779104 188.38875 12.59358 189.92032 11.5625 191.46484 L 9.4882812 186.88672 L 0.07421875 190.6875 L 0.07421875 241.25195 L 32.888672 322.52539 L 23.933594 328.84766 L 26.519531 335.25 L 77.835938 314.53125 L 75.25 308.12891 L 60.923828 311.20508 L 52.894531 291.32031 C 52.502861 290.35028 52.001682 289.19919 51.388672 287.86719 C 50.866452 286.5738 50.283651 285.22869 49.644531 283.83203 C 49.096191 282.47394 48.510216 281.20582 47.884766 280.0293 C 47.323986 278.82666 46.867515 277.88254 46.515625 277.19727 C 50.502735 276.64045 54.255851 275.87798 57.775391 274.9082 C 61.321041 274.00313 64.839811 272.84554 68.332031 271.43555 C 75.510461 268.53721 81.248565 264.86504 85.546875 260.42188 C 89.819085 255.91404 92.807519 250.83574 94.511719 245.18359 C 96.189809 239.46679 96.62406 233.27456 95.8125 226.60742 C 95.03948 219.8495 93.16417 212.78456 90.1875 205.41211 C 83.71193 189.37381 75.869363 178.88944 66.658203 173.95898 C 62.084953 171.4807 57.070724 170.26047 51.615234 170.30078 z M 35.783203 187.11523 C 36.388693 187.12423 37.000441 187.17304 37.619141 187.26172 C 40.132501 187.52558 42.727464 188.73644 45.402344 190.89062 C 48.051104 192.9801 50.780297 196.20123 53.591797 200.55664 C 56.377187 204.84737 59.192952 210.51734 62.039062 217.56641 C 67.156852 230.24184 69.617705 240.34201 69.421875 247.86719 C 69.226045 255.39233 66.218787 260.32968 60.398438 262.67969 C 54.707428 264.97747 48.968301 266.5048 43.181641 267.26172 L 15.412109 198.48438 C 17.128479 196.58798 19.232983 194.72283 21.726562 192.88867 C 24.284852 191.02839 27.213519 189.43322 30.511719 188.10156 C 32.209319 187.41615 33.966733 187.08712 35.783203 187.11523 z "
       transform="translate(0,552.36214)"
       id="rect4236" />
    <path
       style="fill:#f9f9f9;fill-opacity:1;stroke:#cccccc;stroke-width:1;stroke-linejoin:miter;stroke-miterlimit:4;stroke-dasharray:none;stroke-dashoffset:0;stroke-opacity:1"
       d="M 282.21094 118.74219 L 216.25195 145.37305 L 220.74805 156.50977 L 238.78711 153.80859 L 327.67383 373.96094 C 344.20185 371.13986 359.87114 368.0009 374.68164 364.54492 C 389.65247 361.15706 402.61928 357.24933 413.58398 352.82227 C 426.833 347.47289 437.49233 340.644 445.5625 332.33789 C 453.74688 323.98566 459.52789 314.61203 462.90234 304.2168 C 466.23068 293.70734 467.32625 282.43961 466.18945 270.41211 C 465.12075 258.22428 461.95637 245.6202 456.69922 232.59961 C 451.16539 218.89373 445.11386 207.52277 438.54297 198.48633 C 431.97208 189.44989 424.60821 182.72543 416.45117 178.31445 C 408.40835 173.85736 399.51467 171.73667 389.77148 171.95117 C 379.98218 172.05145 369.09226 174.52313 357.09961 179.36523 C 353.10206 180.97927 349.12897 182.98149 345.17969 185.37305 C 341.18429 187.65039 337.3838 190.24754 333.7793 193.16406 C 330.2429 195.92026 327.02789 198.81321 324.13281 201.8418 C 321.35196 204.82428 319.12017 207.8495 317.4375 210.91992 C 315.79504 205.207 313.88832 199.33613 311.71875 193.30469 C 309.6634 187.22713 307.78244 182.07364 306.07617 177.84766 L 282.21094 118.74219 z M 499.92578 124.49219 C 498.32378 125.55968 496.75818 126.64364 495.26758 127.76172 C 487.32718 133.75724 481.21832 140.34257 476.94141 147.51562 C 472.66448 154.68869 470.27656 162.42792 469.77734 170.73242 C 469.34622 178.87659 470.97484 187.51704 474.66406 196.6543 C 480.64948 211.47861 489.07122 221.95121 499.92578 228.07617 L 499.92578 124.49219 z M 165.25391 187.48633 C 151.53118 187.3135 135.99231 190.72969 118.63867 197.73633 C 108.35927 201.88671 99.122844 206.47994 90.927734 211.51562 C 82.800726 216.39097 74.58452 221.70216 66.277344 227.44727 L 87.375 279.69922 L 102.2793 273.68164 L 96.226562 237.4707 C 98.568255 233.07152 101.55321 229.277 105.17969 226.08594 C 108.80617 222.89486 114.15886 219.86892 121.24023 217.00977 C 125.69464 215.21127 130.26775 214.36174 134.95703 214.46094 C 139.6463 214.56014 144.19066 215.78136 148.58984 218.12305 C 153.05713 220.30441 157.26414 223.6519 161.21289 228.16797 C 165.11553 232.56983 168.47408 238.2555 171.28711 245.22266 C 175.34526 255.27364 178.05175 264.60784 179.40625 273.22656 C 180.76076 281.84528 181.07336 290.35327 180.3457 298.75 C 179.68615 306.98639 178.04332 315.42113 175.41797 324.05273 C 172.7465 332.57011 169.43791 341.80898 165.49023 351.77148 C 161.61066 361.57366 157.18421 372.32709 152.21289 384.03125 C 147.19544 395.62119 141.89634 408.65319 136.31641 423.12695 L 149.39062 455.50781 L 295.01562 396.70898 L 279.38281 357.99023 L 166.65234 403.50586 C 173.96965 388.72914 180.92506 375.3614 187.51953 363.40039 C 194.11401 351.43938 200.02573 340.41891 205.25391 330.33789 C 210.5963 320.21077 215.10578 310.81803 218.7832 302.16016 C 222.46062 293.50228 225.04024 285.08646 226.52344 276.91602 C 228.12084 268.69946 228.52933 260.49849 227.74805 252.3125 C 226.92065 244.01229 224.66188 235.2935 220.97266 226.15625 C 213.22529 206.96801 200.51574 194.89928 182.8418 189.94727 C 177.35438 188.38535 171.49151 187.56488 165.25391 187.48633 z M 361.76367 202.34375 C 362.38628 202.35389 363.00727 202.38413 363.625 202.43359 C 368.63494 202.66899 373.53591 204.60973 378.32812 208.25391 C 383.07425 211.78387 387.78051 217.18932 392.44727 224.4707 C 397.06791 231.63787 401.72983 241.04532 406.43359 252.69531 C 410.99901 264.00267 414.48581 274.28526 416.89453 283.54102 C 419.30325 292.79678 420.35957 301.00386 420.0625 308.16406 C 419.83354 315.16393 418.22892 321.05952 415.24805 325.84961 C 412.26719 330.6397 407.69108 334.2793 401.52344 336.76953 C 396.95481 338.61414 392.12308 340.30007 387.02734 341.82617 C 382.04582 343.30615 377.54335 344.32671 373.51953 344.88867 L 323.78516 221.70703 C 326.31345 218.42802 329.96164 215.2936 334.73242 212.30469 C 339.45709 209.20155 343.98988 206.77386 348.33008 205.02148 C 352.92726 203.16535 357.40543 202.27278 361.76367 202.34375 z M 17.810547 323.38477 C 12.172846 323.32755 6.2601227 323.96343 0.07421875 325.28906 L 0.07421875 348.01562 C 0.26799989 348.07329 0.46414434 348.12279 0.65625 348.1875 C 4.9610578 349.63745 9.1570444 352.79166 13.244141 357.65039 C 17.331243 362.50911 21.39946 368.9702 25.451172 377.03125 C 29.50288 385.09231 33.765097 394.66131 38.238281 405.74023 C 42.757581 416.93337 46.382135 426.8944 49.109375 435.62305 C 51.790494 444.23745 53.369342 451.76813 53.847656 458.2168 C 54.325974 464.6654 53.543205 469.96466 51.498047 474.11133 C 49.452891 478.25793 45.86041 481.36816 40.720703 483.44336 C 35.695217 485.47243 31.06288 485.68253 26.826172 484.07227 C 22.589467 482.46193 18.462355 479.14595 14.443359 474.12695 C 10.53857 469.06175 6.6171782 462.47627 2.6796875 454.36914 C 1.8253236 452.6059 0.95318949 450.73987 0.07421875 448.83984 L 0.07421875 499.92578 L 49.152344 499.92578 C 61.748754 494.64912 71.89063 488.45799 79.517578 481.32812 C 87.589884 473.68534 93.199486 465.04396 96.347656 455.4043 C 99.495819 445.7646 100.31979 435.13804 98.818359 423.52344 C 97.431147 411.86272 93.971335 399.17854 88.4375 385.47266 C 77.323712 357.94668 62.910162 339.52377 45.199219 330.20312 C 36.92914 325.75894 27.800482 323.48614 17.810547 323.38477 z "
       transform="translate(0,552.36214)"
       id="path4304" />
    <text
       xml:space="preserve"
       style="font-style:normal;font-variant:normal;font-weight:normal;font-stretch:normal;font-size:90.7009964px;line-height:125%;font-family:'Arial Black';-inkscape-font-specification:'Arial Black, Normal';text-align:center;letter-spacing:0px;word-spacing:0px;writing-mode:lr-tb;text-anchor:middle;fill:#000000;fill-opacity:1;stroke:none;stroke-width:1px;stroke-linecap:butt;stroke-linejoin:miter;stroke-opacity:1"
       x="250.02214"
       y="721.44873"
       id="text4186"
       sodipodi:linespacing="125%"><tspan
         sodipodi:role="line"
         x="250.02213"
         y="721.44873"
         id="tspan4190">CRYPTO</tspan><tspan
         sodipodi:role="line"
         x="265.16849"
         y="834.82495"
         id="tspan4314">2 </tspan><tspan
         sodipodi:role="line"
         x="250.02214"
         y="948.20123"
         id="tspan4316">BGN</tspan></text>
  </g>
</svg>
